Simulation
nRows=20
nColumns=15
endheader
time  TH_x TH_y TH_z SC_y  SC_z  SC_x  AC_y  AC_z  AC_x  GH_y  GH_z  GH_yy  EL_x  PS_y
0.0  0.000000  0.000000  0.000000  -28.950037927519755  -1.8493501232940575  11.703937465459058  53.703633758135744  -7.289629310383531  -9.604971618935531  17.900016034114202  -1.2276166829053377  6.247916676017778  26.041797677408265  0.000000
0.015  0.000000  0.000000  0.000000  -28.893283136904092  -1.40670679635194  11.944139270761298  53.6979478734823  -7.050327427450652  -10.026822332960846  18.0890276601272  -0.7281030793196048  6.397086541282422  25.99582501583979  0.000000
0.03  0.000000  0.000000  0.000000  -28.559737547614123  -1.119979039084393  12.168437030552566  53.29244018095189  -6.852150293368718  -10.415988002188517  18.13662776903367  -0.24886765149179332  6.337036714976405  25.837469549966947  0.000000
0.045  0.000000  0.000000  0.000000  -28.289433664366864  -0.9776032271264816  12.349841184622221  52.91453422510515  -6.664786106606121  -10.681183478428522  18.189558920370654  0.30713931257020277  6.194403114987479  25.6654587715333  0.000000
0.06  0.000000  0.000000  0.000000  -28.11104208748101  -0.9560925943548001  12.501462518085617  52.549498444663925  -6.480861835903796  -10.843851560123204  18.240106696459996  0.9237507081405885  5.961209563157352  25.56446627341789  0.000000
0.075  0.000000  0.000000  0.000000  -27.995065897023515  -1.0022439285280431  12.634037437621387  52.116094858057274  -6.323518484875098  -10.888604999788596  18.268704311120548  1.5782982598339386  5.624118458209423  25.49379610273488  0.000000
0.09  0.000000  0.000000  0.000000  -27.870160424825066  -1.0827709895517181  12.75332512289896  51.53703345623356  -6.1754876738755975  -10.817159967421325  18.243783926524497  2.212977492670951  5.155146976119349  25.41065979089094  0.000000
0.105  0.000000  0.000000  0.000000  -27.6943863406376  -1.20180621658609  12.839644657783541  50.7926959324013  -5.942961155779007  -10.62822535613068  18.19574425890414  2.7534221210356233  4.584366512591169  25.26336963369938  0.000000
0.12  0.000000  0.000000  0.000000  -27.532069226347183  -1.3881841602861187  12.966997972876266  49.90434777688562  -5.574399010521952  -10.391046373505102  18.252682536426505  3.1598631453720074  4.0454433820617615  25.04561785165832  0.000000
0.135  0.000000  0.000000  0.000000  -27.430211064383496  -1.6884955648634035  13.148482896266351  49.17376085920197  -5.172777973091974  -10.22458332548483  18.397218367568566  3.6037916176398213  3.510919006964481  24.83802580735473  0.000000
0.15  0.000000  0.000000  0.000000  -27.383055558971133  -2.0025408534083864  13.27362260251956  49.20380996591732  -4.966254962209147  -10.181846739481413  18.493980061423308  4.359711155478411  2.8368598684788044  24.778497607030086  0.000000
0.16499999999999998  0.000000  0.000000  0.000000  -27.420678448308472  -2.115389032107692  13.373872128954119  49.755958557043606  -4.960348935390019  -10.175682407542382  18.63540577218867  5.269324566583098  2.1720125620247224  24.863781435455454  0.000000
0.18  0.000000  0.000000  0.000000  -27.49500719751038  -2.059152041551295  13.531534578308147  50.01197853212613  -4.960428623167276  -10.125963480476786  18.869360798541557  6.03518458095927  1.6092527069967166  24.92834880763073  0.000000
0.195  0.000000  0.000000  0.000000  -27.548108816248078  -1.9805887421109072  13.72694749593374  50.094243413626465  -4.992116318475368  -10.084124634172515  19.04242461258873  6.761279344111866  0.9659053413924761  24.90900334900757  0.000000
0.21  0.000000  0.000000  0.000000  -27.600814096400892  -1.898088591294357  13.931651745176543  50.225133972493644  -5.0619307037146655  -10.085079043395233  19.18125313080121  7.526665691159097  0.2773157169396325  24.866292163976176  0.000000
0.22499999999999998  0.000000  0.000000  0.000000  -27.64530207631424  -1.8122803520577833  14.151461566626683  50.33337631690528  -5.1339364589583045  -10.12858109231377  19.32649039355129  8.296829192747769  -0.4025370655936033  24.81357112531153  0.000000
0.24  0.000000  0.000000  0.000000  -27.674614865771378  -1.7410000379879238  14.395977171412  50.4097876760718  -5.211217319557256  -10.217940279740485  19.464491276098368  9.06640642822696  -1.0889785828876501  24.743142050127233  0.000000
0.255  0.000000  0.000000  0.000000  -27.685977731312533  -1.693749371361379  14.671745229284836  50.441650202066704  -5.293846629107348  -10.35782119604313  19.597940459387274  9.831802994997421  -1.7750656094582058  24.662205103817094  0.000000
0.27  0.000000  0.000000  0.000000  -27.671481798441057  -1.6725663379862366  14.987170916962633  50.454613472389426  -5.398300272089888  -10.552938731024184  19.713710055048875  10.595487458243385  -2.4717039798673976  24.571646470991027  0.000000
0.285  0.000000  0.000000  0.000000  -27.645939227032574  -1.6650584697870858  15.36862733394819  50.41626100523654  -5.53668966125987  -10.793563705449598  19.820378809528844  11.33467598466222  -3.160657829582183  24.474256907448524  0.000000
